<svg xmlns="http://www.w3.org/2000/svg" width="1000" height="620" viewBox="0 0 1000 620" font-family="Malgun Gothic,Apple SD Gothic Neo,Noto Sans KR,Segoe UI,-apple-system,Helvetica,Arial,sans-serif">
  <defs>
    <marker id="am" markerWidth="9" markerHeight="9" refX="7" refY="3" orient="auto"><path d="M0,0 L7,3 L0,6 Z" fill="#57606a"/></marker>
  </defs>
  <rect x="6" y="6" width="988" height="608" rx="14" fill="#ffffff" stroke="#d0d7de"/>
  <text x="32" y="46" font-size="18" font-weight="600" fill="#1f2328">임무 하나가 원자 단위 열이 되기까지</text>
  <text x="32" y="72" font-size="12.5" fill="#57606a">상류는 결과만 말한다 — 어느 로봇도, 어느 스킬도, 몇 개로 쪼갤지도 고르지 않는다.</text>
  <text x="32" y="93" font-size="12.5" fill="#57606a">쪼개는 규칙과 그것이 성립할 조건은 능력 한 장 안에 있다. 능력을 더해도 공통 엔진은 안 바뀐다.</text>
  <rect x="24" y="118" width="952" height="64" rx="6" fill="#ddf4ff" stroke="#0969da"/>
  <text x="44" y="143" font-size="12.5" font-weight="600" fill="#1f2328">JobOrder — 상류(MES · WMS · SCADA)가 보내는 것</text>
  <text x="44" y="164" font-size="11" fill="#0969da">jobOrderId · workMasterId · version · requiredEvidence · equipmentRequirements[equipmentUse, properties] · parameters</text>
  <polyline points="500,182 500,196 174,196 174,210" fill="none" stroke="#57606a" stroke-width="1.6" marker-end="url(#am)"/>
  <polyline points="500,182 500,210" fill="none" stroke="#57606a" stroke-width="1.6" marker-end="url(#am)"/>
  <polyline points="500,182 500,196 826,196 826,210" fill="none" stroke="#57606a" stroke-width="1.6" marker-end="url(#am)"/>
  <rect x="18" y="204" width="312" height="320" rx="10" fill="#fbfcfd" stroke="#e6e9ee"/>
  <rect x="24" y="212" width="300" height="150" rx="6" fill="#f6f8fa" stroke="#d0d7de"/>
  <text x="42" y="236" font-size="13" font-weight="600" fill="#1f2328">PrepareSequencedRack</text>
  <text x="42" y="253" font-size="10" fill="#8b95a1">시나리오 ② · 부품 시퀀싱</text>
  <text x="42" y="274" font-size="9.5" font-weight="700" letter-spacing="0.5" fill="#8b95a1">읽는 것</text>
  <text x="42" y="290" font-size="10.5" fill="#1f2328">destination 요구 = 슬롯, material = 놓일 타입</text>
  <text x="42" y="305" font-size="10.5" fill="#1f2328">source 요구 = 제시 자리, material = 그 타입</text>
  <text x="42" y="326" font-size="9.5" font-weight="700" letter-spacing="0.5" fill="#8b95a1">나누는 규칙</text>
  <text x="42" y="342" font-size="10.5" fill="#1f2328">슬롯 하나 = 단위 하나</text>
  <text x="42" y="357" font-size="10.5" fill="#1f2328">타입으로 제시 자리를 찾아 짝짓는다</text>
  <polyline points="174,362 174,372 60,372 288,372" fill="none" stroke="#57606a" stroke-width="1.6"/>
  <polyline points="60,372 60,388" fill="none" stroke="#57606a" stroke-width="1.6" marker-end="url(#am)"/>
  <polyline points="136,372 136,388" fill="none" stroke="#57606a" stroke-width="1.6" marker-end="url(#am)"/>
  <polyline points="212,372 212,388" fill="none" stroke="#57606a" stroke-width="1.6" marker-end="url(#am)"/>
  <polyline points="288,372 288,388" fill="none" stroke="#57606a" stroke-width="1.6" marker-end="url(#am)"/>
  <rect x="25" y="388" width="70" height="22" rx="4" fill="#eaf3ea" stroke="#1a7f37"/>
  <text x="60" y="403" font-size="9.5" font-weight="600" text-anchor="middle" fill="#1a7f37">pick_place</text>
  <rect x="101" y="388" width="70" height="22" rx="4" fill="#eaf3ea" stroke="#1a7f37"/>
  <text x="136" y="403" font-size="9.5" font-weight="600" text-anchor="middle" fill="#1a7f37">pick_place</text>
  <rect x="177" y="388" width="70" height="22" rx="4" fill="#eaf3ea" stroke="#1a7f37"/>
  <text x="212" y="403" font-size="9.5" font-weight="600" text-anchor="middle" fill="#1a7f37">pick_place</text>
  <rect x="253" y="388" width="70" height="22" rx="4" fill="#ffffff" stroke="#d0d7de"/>
  <text x="288" y="403" font-size="9.5" text-anchor="middle" fill="#8b95a1">슬롯 수만큼</text>
  <text x="174" y="430" font-size="10.5" text-anchor="middle" fill="#57606a">Route.ROBOT — 계약 카탈로그의 스킬로 나간다</text>
  <rect x="24" y="442" width="300" height="68" rx="6" fill="#ffffff" stroke="#d0d7de"/>
  <text x="40" y="462" font-size="9.5" font-weight="700" letter-spacing="0.5" fill="#9a6700">최고 근거</text>
  <text x="104" y="462" font-size="10.5" fill="#1f2328">E2 — 셀 검증 장치가 있으면</text>
  <text x="40" y="480" font-size="9.5" font-weight="700" letter-spacing="0.5" fill="#9a6700">선택 인자</text>
  <text x="104" y="480" font-size="10.5" fill="#1f2328">verify_grasp — 드는 기종에만</text>
  <text x="40" y="498" font-size="9.5" font-weight="700" letter-spacing="0.5" fill="#9a6700">부족하면</text>
  <text x="104" y="498" font-size="10.5" fill="#1f2328">NO_SOURCE_FOR_MATERIAL</text>
  <rect x="344" y="204" width="312" height="320" rx="10" fill="#fbfcfd" stroke="#e6e9ee"/>
  <rect x="350" y="212" width="300" height="150" rx="6" fill="#f6f8fa" stroke="#d0d7de"/>
  <text x="368" y="236" font-size="13" font-weight="600" fill="#1f2328">DeliverContainer</text>
  <text x="368" y="253" font-size="10" fill="#8b95a1">시나리오 ① · 용기 공급</text>
  <text x="368" y="274" font-size="9.5" font-weight="700" letter-spacing="0.5" fill="#8b95a1">읽는 것</text>
  <text x="368" y="290" font-size="10.5" fill="#1f2328">source = 출발 인계점, container = 용기</text>
  <text x="368" y="305" font-size="10.5" fill="#1f2328">destination = 도착 인계점</text>
  <text x="368" y="326" font-size="9.5" font-weight="700" letter-spacing="0.5" fill="#8b95a1">나누는 규칙</text>
  <text x="368" y="342" font-size="10.5" fill="#1f2328">운반 하나 = 단위 하나</text>
  <text x="368" y="357" font-size="10.5" fill="#1f2328">경로도 배차도 안 짠다 — 플릿에 위임</text>
  <polyline points="500,362 500,388" fill="none" stroke="#57606a" stroke-width="1.6" marker-end="url(#am)"/>
  <rect x="452" y="388" width="96" height="22" rx="4" fill="#eaf3ea" stroke="#1a7f37"/>
  <text x="500" y="403" font-size="9.5" font-weight="600" text-anchor="middle" fill="#1a7f37">transport</text>
  <text x="500" y="430" font-size="10.5" text-anchor="middle" fill="#57606a">Route.FLEET — 플릿이 운반 전체를 든다</text>
  <rect x="350" y="442" width="300" height="68" rx="6" fill="#ffffff" stroke="#d0d7de"/>
  <text x="366" y="462" font-size="9.5" font-weight="700" letter-spacing="0.5" fill="#9a6700">최고 근거</text>
  <text x="430" y="462" font-size="10.5" fill="#1f2328">E2 — 인계 설비가 말하면</text>
  <text x="366" y="480" font-size="9.5" font-weight="700" letter-spacing="0.5" fill="#9a6700">선택 인자</text>
  <text x="430" y="480" font-size="10.5" fill="#1f2328">없다</text>
  <text x="366" y="498" font-size="9.5" font-weight="700" letter-spacing="0.5" fill="#9a6700">부족하면</text>
  <text x="430" y="498" font-size="10.5" fill="#1f2328">INCOMPLETE_ORDER</text>
  <rect x="670" y="204" width="312" height="320" rx="10" fill="#fbfcfd" stroke="#e6e9ee"/>
  <rect x="676" y="212" width="300" height="150" rx="6" fill="#f6f8fa" stroke="#d0d7de"/>
  <text x="694" y="236" font-size="13" font-weight="600" fill="#1f2328">InspectAsset</text>
  <text x="694" y="253" font-size="10" fill="#8b95a1">시나리오 ③ · 설비 점검 순회</text>
  <text x="694" y="274" font-size="9.5" font-weight="700" letter-spacing="0.5" fill="#8b95a1">읽는 것</text>
  <text x="694" y="290" font-size="10.5" fill="#1f2328">inspection_target 요구 = 점검 대상</text>
  <text x="694" y="305" font-size="10.5" fill="#1f2328">location = 살필 자리, item = 점검 항목</text>
  <text x="694" y="326" font-size="9.5" font-weight="700" letter-spacing="0.5" fill="#8b95a1">나누는 규칙</text>
  <text x="694" y="342" font-size="10.5" fill="#1f2328">대상 하나 = 단위 둘 (가서, 살핀다)</text>
  <text x="694" y="357" font-size="10.5" fill="#1f2328">목록의 순서가 순회 순서다</text>
  <polyline points="826,362 826,372 712,372 940,372" fill="none" stroke="#57606a" stroke-width="1.6"/>
  <polyline points="712,372 712,388" fill="none" stroke="#57606a" stroke-width="1.6" marker-end="url(#am)"/>
  <polyline points="788,372 788,388" fill="none" stroke="#57606a" stroke-width="1.6" marker-end="url(#am)"/>
  <polyline points="864,372 864,388" fill="none" stroke="#57606a" stroke-width="1.6" marker-end="url(#am)"/>
  <polyline points="940,372 940,388" fill="none" stroke="#57606a" stroke-width="1.6" marker-end="url(#am)"/>
  <rect x="677" y="388" width="70" height="22" rx="4" fill="#eaf3ea" stroke="#1a7f37"/>
  <text x="712" y="403" font-size="9.5" font-weight="600" text-anchor="middle" fill="#1a7f37">navigate_to</text>
  <rect x="753" y="388" width="70" height="22" rx="4" fill="#eaf3ea" stroke="#1a7f37"/>
  <text x="788" y="403" font-size="9.5" font-weight="600" text-anchor="middle" fill="#1a7f37">inspect</text>
  <rect x="829" y="388" width="70" height="22" rx="4" fill="#eaf3ea" stroke="#1a7f37"/>
  <text x="864" y="403" font-size="9.5" font-weight="600" text-anchor="middle" fill="#1a7f37">navigate_to</text>
  <rect x="905" y="388" width="70" height="22" rx="4" fill="#eaf3ea" stroke="#1a7f37"/>
  <text x="940" y="403" font-size="9.5" font-weight="600" text-anchor="middle" fill="#1a7f37">inspect</text>
  <text x="826" y="430" font-size="10.5" text-anchor="middle" fill="#57606a">Route.ROBOT — 대상 수 × 2</text>
  <rect x="676" y="442" width="300" height="68" rx="6" fill="#ffffff" stroke="#d0d7de"/>
  <text x="692" y="462" font-size="9.5" font-weight="700" letter-spacing="0.5" fill="#9a6700">최고 근거</text>
  <text x="756" y="462" font-size="10.5" fill="#1f2328">E0 — 독립 확인 수단이 없다</text>
  <text x="692" y="480" font-size="9.5" font-weight="700" letter-spacing="0.5" fill="#9a6700">선택 인자</text>
  <text x="756" y="480" font-size="10.5" fill="#1f2328">mode — 주문에 있으면</text>
  <text x="692" y="498" font-size="9.5" font-weight="700" letter-spacing="0.5" fill="#9a6700">부족하면</text>
  <text x="756" y="498" font-size="10.5" fill="#1f2328">NO_LOCATION_FOR_TARGET</text>
  <rect x="24" y="544" width="952" height="54" rx="6" fill="#fbfcfd" stroke="#e6e9ee"/>
  <text x="44" y="566" font-size="11" fill="#57606a">요구 등급이 그 능력의 최고 등급을 넘으면 주문을 접수하지 않는다 — 확인할 수단이 없으면 제공할 수 없다. InspectAsset 에 E2 를 요구하면 여기서 걸린다.</text>
  <text x="44" y="585" font-size="11" fill="#57606a">시간창 δ(30s · 15s) · IN_DOUBT 유예(60s) · 정체 창(5분)은 능력 단위 설정이고 현장마다 다르게 준다 — picasso · LogicalCapability.kt</text>
</svg>
